<svg width="32" height="32" viewBox="0 0 19 30" fill="none" xmlns="http://www.w3.org/2000/svg">
  <path d="M17.007 27.76c.235-.002.494-.426.68-.553.072.282.183.558.284.83.088.24.17.483.256.723.078.214.181.443.216.67a.596.596 0 0 1-.047.37.4.4 0 0 1-.257.187.322.322 0 0 1-.255-.037.413.413 0 0 1-.148-.152c-.166-.302-.308-.803-.427-1.14-.099-.28-.232-.58-.297-.87a.36.36 0 0 1-.005-.027Zm-15.776-.57c.121.151.465.548.651.587l.011.001a.904.904 0 0 1-.021.09c-.089.311-.217.62-.325.926-.116.326-.214.712-.385 1.012a.36.36 0 0 1-.153.15.346.346 0 0 1-.283.025.425.425 0 0 1-.232-.218.513.513 0 0 1-.043-.308c.039-.254.162-.514.248-.756.18-.501.368-1.003.532-1.51ZM9.047 3.912l.001-2.216c0-.297-.031-.725.01-1.01a.478.478 0 0 1 .129-.28.382.382 0 0 1 .269-.119.43.43 0 0 1 .297.157c.064.076.083.17.093.267.035.31.01.647.009.962-.002.747-.02 1.5.001 2.246-.27 0-.54.008-.81-.007ZM2.88 15.14a.451.451 0 0 1-.188.26.38.38 0 0 1-.286.043.386.386 0 0 1-.228-.189c-.124-.218-.12-.808-.051-1.047.03-.103.095-.225.193-.273a.398.398 0 0 1 .321-.02c.126.055.194.167.246.288.68-.033 1.375-.006 2.058-.005-.047.264-.217.686-.323.94H3.449c-.184-.001-.389-.02-.57.003Zm13.132-.935c.049-.115.125-.238.243-.29a.372.372 0 0 1 .283-.001.426.426 0 0 1 .226.25c.086.23.08.84-.022 1.064a.352.352 0 0 1-.211.198c-.045.016-.093.025-.14.035-.154-.035-.243-.086-.33-.225a.609.609 0 0 1-.047-.095c-.181-.021-.382-.005-.564-.005-.392.001-.785.005-1.177 0-.096-.317-.229-.622-.325-.94h1.313c.249 0 .504-.012.752.01Z" fill="#222733"/>
  <path d="M1.75 23.14c.128.304.427.566.726.686.213.085.55.131.765.03a.082.082 0 0 0 .019-.009.564.564 0 0 1-.036.172c-.312.97-.68 1.928-1.021 2.888-.052.146-.252.787-.31.871h-.011c-.186-.04-.53-.437-.651-.589-.019-.062-.07-.13-.1-.19a2.171 2.171 0 0 1-.208-.619 2.307 2.307 0 0 1 .004-.703c.056-.346.191-.677.309-1.004l.361-1.01c.052-.14.168-.371.152-.522Zm15.39.018c.022.197.142.437.21.626l.346.967c.104.29.22.585.278.89.096.505-.003 1.099-.298 1.525.002.018-.001.026.01.04-.184.128-.443.551-.678.554L17 27.75c-.052-.069-.277-.788-.333-.946-.328-.929-.68-1.853-.99-2.788-.02-.06-.037-.108-.034-.171.017.01.033.018.051.025.234.083.55.037.772-.06.267-.118.568-.37.675-.652Z" fill="#C0BCBC"/>
  <path d="M14.82 21.547c.116-.2.244-.384.426-.529.315-.249.643-.29 1.028-.24.406.147.711.385.903.787.204.427.22.932.064 1.378-.024.068-.054.162-.102.216-.108.28-.408.534-.675.651-.222.098-.539.144-.772.06a.288.288 0 0 1-.05-.024c-.033.002-.056-.009-.084-.02a1.468 1.468 0 0 1-.781-.82c-.197-.491-.158-.98.043-1.459ZM2.628 20.78c.364-.06.684-.014.989.209.205.15.37.358.478.59.191.445.223.932.047 1.39-.141.366-.41.685-.772.844-.032.015-.074.035-.11.035l-.019.009c-.216.1-.552.054-.765-.031-.299-.12-.598-.382-.727-.685a1.07 1.07 0 0 1-.092-.211 1.817 1.817 0 0 1 .061-1.348c.194-.415.494-.65.91-.802ZM9.046 3.913c.269.014.54.007.81.006.379.006.887-.092 1.177.215.186.198.238.464.229.728-.018.494-.116.987-.126 1.481-.078.497-.096 1.02-.142 1.523-.072.791-.16 1.585-.213 2.378-.886.014-1.775-.001-2.661-.001l-.36-4c-.03-.457-.1-.914-.12-1.37-.01-.264.041-.533.225-.732.29-.313.797-.22 1.18-.228Z" fill="#222733"/>
  <path d="M11.137 6.342c.109.206.176.446.254.666l.438 1.232 1.552 4.37.4 1.132c.052.143.096.321.167.452.096.319.229.624.325.941.393.005.785.002 1.177 0 .182 0 .383-.017.564.005-.194.032-.411.015-.607.015l-1.13-.001c.228.584.43 1.182.638 1.773l.789 2.222.388 1.089c.062.173.147.359.183.539-.385-.05-.713-.01-1.028.24-.182.145-.31.328-.426.529-.121-.152-.431-1.143-.521-1.398l-.962-2.707-.557-1.568c-.085-.242-.182-.482-.252-.728-.313.023-.635.008-.949.008H9.873l-.02.005c-.017-.323 0-.655 0-.979.086.044 2.041.011 2.325.016-.028-.188-.274-.791-.348-1.001l-1.049-2.952c.053-.793.142-1.586.214-2.378.046-.502.064-1.025.142-1.522Z" fill="#C0BCBC"/>
  <path d="M7.736 6.354c-.109.205-.176.446-.254.666l-.438 1.232-1.552 4.37-.4 1.132c-.052.143-.096.321-.167.452-.096.318-.229.623-.325.941-.393.005-.785.001-1.177 0-.182 0-.383-.017-.564.005.194.032.411.015.607.014h1.13c-.228.583-.43 1.181-.638 1.773L3.17 19.16l-.388 1.089c-.062.173-.147.358-.183.539.385-.05.713-.01 1.028.24.182.144.31.328.426.528.121-.151.431-1.143.521-1.397l.962-2.708.557-1.567c.085-.242.182-.482.252-.729.313.023.635.009.949.01H9l.02.004c.017-.323 0-.655 0-.979-.086.043-2.041.011-2.324.016.027-.189.273-.792.347-1.001l1.049-2.952c-.053-.793-.142-1.587-.214-2.378-.046-.502-.064-1.026-.142-1.522Z" fill="#FD5631"/>
  <path d="M9.853 14.18c.086.043 2.041.01 2.325.016.133.3.234.627.34.938l-1.766.002c-.208 0-.713-.033-.88.018l-.019.005c-.017-.323 0-.656 0-.98Zm-.802-.018c-.005.326-.004.652-.002.979-.887-.02-1.776 0-2.662-.006a9.5 9.5 0 0 1 .33-.939c.555-.006 1.11 0 1.665 0 .187 0 .479.032.655-.012v-.026l.01.018.004-.014Z" fill="#222733"/>
  <path d="M9.052 14.163c-.008-.301-.074-.88.132-1.11a.345.345 0 0 1 .259-.112.36.36 0 0 1 .272.106c.215.224.14.835.137 1.134 0 .324-.017.656.001.979.002.316.075.905-.149 1.14a.326.326 0 0 1-.236.106.392.392 0 0 1-.283-.129c-.086-.09-.112-.19-.137-.31.013-.273.003-.552.002-.825-.001-.327-.003-.653.002-.98Z" fill="#222733"/>
</svg>