<?xml version="1.0" standalone="no"?>
<!DOCTYPE svg PUBLIC "-//W3C//DTD SVG 20010904//EN"
 "http://www.w3.org/TR/2001/REC-SVG-20010904/DTD/svg10.dtd">
<svg version="1.0" xmlns="http://www.w3.org/2000/svg"
 width="896.000000pt" height="896.000000pt" viewBox="0 0 896.000000 896.000000"
 preserveAspectRatio="xMidYMid meet">
<metadata>
Created by potrace 1.14, written by Peter Selinger 2001-2017
</metadata>
<g transform="translate(0.000000,896.000000) scale(0.100000,-0.100000)"
fill="#000000" stroke="none">
<path d="M4400 8953 c-19 -7 -70 -63 -71 -77 0 -6 -3 -20 -6 -31 -8 -33 -9
-507 0 -512 4 -2 4 -9 1 -15 -4 -6 -7 -109 -7 -230 0 -193 -2 -218 -16 -219
-9 0 -59 -1 -111 -1 -128 -1 -187 -21 -243 -82 -59 -65 -71 -178 -43 -421 2
-16 7 -64 11 -105 3 -41 8 -92 10 -113 4 -31 1 -38 -10 -33 -10 3 -15 -1 -15
-12 0 -10 -6 -26 -14 -37 -7 -11 -14 -24 -15 -30 -4 -25 -14 -61 -20 -70 -3
-5 -20 -50 -37 -100 -66 -188 -201 -564 -221 -615 -3 -8 -7 -19 -9 -25 -2 -9
-22 -63 -80 -220 -8 -22 -21 -58 -29 -80 -7 -22 -43 -121 -79 -220 -37 -99
-68 -187 -71 -195 -4 -16 -133 -374 -195 -540 -21 -58 -42 -118 -46 -134 -4
-16 -12 -39 -18 -50 -11 -21 -18 -21 -323 -21 l-312 0 -15 25 c-23 40 -48 58
-89 64 -56 9 -94 -15 -122 -75 -20 -44 -22 -62 -20 -157 4 -111 4 -117 24
-167 33 -85 152 -90 202 -8 12 20 27 32 35 29 7 -3 15 0 18 7 3 9 5 9 5 0 1
-7 8 -13 16 -13 8 0 15 6 15 13 0 8 4 7 10 -3 8 -12 13 -13 29 -3 13 8 22 9
26 2 5 -6 12 -6 23 3 9 7 13 8 9 2 -4 -8 3 -11 23 -10 17 0 30 5 30 11 0 7 3
7 8 0 9 -13 52 -15 52 -2 0 6 5 6 12 -1 21 -17 24 -17 41 -4 9 8 18 9 21 3 7
-11 25 -9 45 3 9 6 12 5 8 -1 -8 -12 47 -12 59 0 4 4 14 1 22 -6 8 -6 18 -11
21 -9 3 1 6 -1 6 -5 0 -8 -77 -225 -95 -268 -5 -11 -20 -54 -35 -95 -15 -41
-29 -82 -32 -90 -4 -8 -7 -18 -7 -22 -1 -3 -4 -10 -8 -14 -5 -4 -8 -16 -8 -26
0 -10 -4 -26 -10 -36 -5 -9 -30 -74 -55 -144 -24 -70 -51 -144 -59 -165 -8
-21 -38 -103 -66 -183 -27 -80 -54 -154 -59 -165 -6 -11 -33 -85 -61 -165 -28
-80 -62 -172 -75 -205 -13 -33 -27 -73 -30 -88 -6 -20 -15 -30 -36 -34 -16 -3
-29 -9 -29 -14 0 -5 -9 -9 -20 -9 -11 0 -20 -4 -20 -10 0 -5 -6 -10 -13 -10
-22 0 -123 -115 -151 -172 -15 -31 -33 -82 -41 -114 -13 -58 -18 -200 -6 -219
3 -5 7 -21 9 -35 2 -14 14 -49 27 -78 13 -28 21 -52 17 -52 -4 0 -8 -10 -10
-23 -1 -12 -22 -76 -47 -142 -26 -66 -51 -133 -56 -150 -5 -16 -13 -39 -18
-50 -10 -21 -95 -263 -107 -305 -10 -35 -14 -65 -20 -138 -2 -34 -5 -66 -5
-70 -1 -4 -1 -9 0 -12 1 -3 4 -25 7 -49 6 -63 28 -132 64 -203 l31 -61 -31
-91 c-17 -50 -35 -100 -39 -111 -12 -26 -56 -149 -56 -155 0 -3 -3 -9 -6 -15
-6 -9 -31 -81 -34 -95 -1 -3 -9 -22 -18 -43 -27 -63 -57 -167 -57 -199 0 -78
64 -143 133 -134 69 8 98 50 162 236 18 52 45 127 60 165 47 126 85 240 85
257 0 9 3 18 8 20 4 2 20 41 36 88 53 156 117 334 156 435 38 99 122 331 127
350 1 6 25 74 52 153 l50 143 49 26 c80 41 167 131 201 208 56 125 63 275 20
402 -14 40 -22 76 -18 80 3 5 12 26 19 48 7 22 16 45 20 50 4 6 15 35 24 65
10 30 21 64 26 75 4 11 13 34 18 50 6 17 13 39 18 50 4 11 8 25 10 30 4 14 83
237 91 255 3 8 7 20 9 25 1 6 19 55 39 110 40 109 153 421 190 525 13 36 42
117 65 180 73 199 121 333 141 390 l19 55 403 -2 c221 -1 408 -2 415 -2 8 -1
13 -11 12 -23 -1 -13 -1 -27 0 -33 1 -5 1 -41 0 -80 -2 -106 -2 -107 15 -152
10 -27 28 -50 49 -63 64 -39 124 -21 158 49 22 45 25 73 28 297 0 7 129 10
406 10 l406 -1 13 -25 c8 -14 14 -33 15 -43 0 -9 4 -25 9 -35 6 -9 22 -51 36
-92 15 -41 34 -91 42 -110 8 -19 16 -42 18 -50 3 -13 38 -111 95 -265 10 -27
62 -171 115 -320 53 -148 99 -277 103 -285 3 -8 6 -17 7 -20 4 -13 17 -47 26
-68 5 -13 18 -52 30 -85 11 -34 24 -71 29 -82 5 -11 27 -72 49 -135 21 -63 44
-131 51 -150 13 -37 34 -87 55 -133 12 -24 11 -35 -6 -84 -57 -166 -36 -339
59 -478 37 -54 82 -94 155 -135 42 -23 63 -42 65 -56 2 -12 12 -46 23 -75 11
-30 22 -61 24 -69 5 -19 54 -158 65 -185 16 -38 90 -242 90 -249 0 -3 8 -25
18 -49 10 -23 27 -64 36 -92 72 -204 138 -393 143 -408 3 -9 10 -17 15 -17 5
0 7 -4 4 -9 -6 -9 11 -66 55 -181 15 -41 49 -136 74 -210 78 -224 115 -280
185 -280 60 0 130 72 125 127 -6 59 -21 119 -55 208 -82 219 -135 360 -137
370 -1 6 -13 42 -26 80 -20 56 -22 73 -12 85 20 24 61 121 75 175 14 57 21
230 10 260 -4 11 -13 41 -19 68 -13 57 -102 307 -163 461 -11 27 -21 56 -23
65 -2 10 -12 37 -23 62 -32 70 -32 83 -1 173 42 121 43 203 5 351 -3 15 -43
97 -58 120 -30 46 -117 119 -178 147 -36 18 -66 32 -67 32 -1 1 -4 13 -7 26
-3 14 -14 50 -26 80 -28 72 -151 411 -266 735 -14 39 -32 86 -39 105 -7 19
-25 68 -39 108 -14 39 -37 102 -50 140 -13 37 -39 108 -56 157 -18 50 -38 106
-45 125 -79 207 -85 226 -62 217 8 -3 20 -1 27 3 8 5 19 6 25 2 17 -11 215 -9
215 3 0 7 3 7 8 0 8 -12 146 -14 157 -3 4 3 19 3 33 -1 15 -5 32 -7 37 -5 6 2
19 -11 30 -28 11 -17 35 -39 53 -49 46 -24 108 -7 138 39 46 67 50 290 7 363
-32 53 -103 73 -153 41 -28 -18 -59 -52 -60 -67 0 -13 -626 -13 -639 0 -5 6
-23 51 -40 100 -18 50 -36 98 -41 107 -6 10 -10 25 -10 33 0 8 -4 23 -9 33 -6
9 -21 50 -35 90 -55 154 -78 219 -98 268 -11 29 -21 58 -22 65 -1 8 -10 31
-19 53 -9 21 -17 41 -17 44 0 8 -150 423 -166 459 -8 17 -14 37 -14 45 0 8 -4
18 -8 24 -4 5 -16 34 -26 64 -10 30 -20 62 -24 70 -3 8 -6 17 -7 20 -1 3 -5
14 -9 25 -25 66 -37 98 -61 165 -15 41 -35 98 -45 125 -10 28 -33 91 -50 140
-17 50 -37 106 -45 125 -7 19 -25 69 -40 110 -15 41 -31 86 -37 100 -42 105
-44 143 -12 385 11 78 12 215 2 257 -16 72 -56 125 -118 156 -49 24 -67 27
-170 29 -63 0 -120 2 -126 2 -7 1 -10 154 -8 489 1 431 -1 492 -15 522 -28 59
-98 93 -151 73z m-463 -1955 c-3 -7 -5 -2 -5 12 0 14 2 19 5 13 2 -7 2 -19 0
-25z m20 -200 c-3 -8 -6 -5 -6 6 -1 11 2 17 5 13 3 -3 4 -12 1 -19z m8 -83 c3
-32 2 -55 -1 -52 -3 3 -7 31 -9 62 -3 32 -2 55 1 52 3 -3 7 -31 9 -62z m13
-125 c0 -9 -3 -7 -8 5 -5 11 -8 29 -8 40 0 16 2 15 8 -5 4 -14 8 -32 8 -40z
m5 -40 c3 -11 1 -20 -4 -20 -5 0 -9 9 -9 20 0 11 2 20 4 20 2 0 6 -9 9 -20z
m9 -105 c3 -13 1 -22 -3 -19 -9 5 -13 44 -5 44 2 0 6 -11 8 -25z m6 -60 c-3
-3 -9 2 -12 12 -6 14 -5 15 5 6 7 -7 10 -15 7 -18z m9 -100 c0 -8 -4 -12 -9
-9 -5 3 -6 10 -3 15 9 13 12 11 12 -6z m10 -167 c-3 -7 -5 -2 -5 12 0 14 2 19
5 13 2 -7 2 -19 0 -25z m11 -59 c1 -18 1 -31 -2 -28 -7 7 -15 69 -7 65 4 -3 8
-19 9 -37z m-1 -76 c-3 -10 -5 -4 -5 12 0 17 2 24 5 18 2 -7 2 -21 0 -30z
m829 -43 c3 -8 24 -64 45 -125 22 -60 42 -117 46 -125 3 -8 7 -17 7 -20 2 -11
39 -107 52 -137 8 -17 14 -35 14 -41 0 -5 9 -31 19 -58 11 -27 43 -114 72
-194 68 -191 102 -283 128 -347 11 -29 18 -53 15 -53 -4 0 -2 -6 3 -12 13 -17
23 -58 15 -59 -26 -4 -653 -4 -675 1 l-29 5 -2 130 c-3 180 -31 235 -120 238
-51 1 -82 -20 -107 -72 -19 -39 -22 -64 -23 -166 -1 -66 -4 -125 -8 -130 -7
-11 -693 -13 -704 -2 -5 5 26 106 46 152 9 19 53 134 55 145 2 6 12 34 30 80
17 43 106 291 109 305 2 6 8 21 13 35 23 57 163 448 163 457 0 6 160 10 415 9
363 0 415 -2 421 -16z"/>
</g>
</svg>
