<svg width="24" height="24" viewBox="0 0 24 24" fill="none" xmlns="http://www.w3.org/2000/svg">
<path d="M20.0003 3.5H4.00035C3.44807 3.5 3.00036 3.9477 3.00035 4.49998L3.00002 19.5C3.00001 20.0523 3.44773 20.5 4.00002 20.5H20C20.5523 20.5 21 20.0523 21 19.5L21.0003 4.50002C21.0004 3.94773 20.5526 3.5 20.0003 3.5Z" stroke="#FD5631" stroke-width="1.2"/>
<path d="M7 7.5C7 7.5 13.0948 7.5 17 7.5M7 7.5V16.5M7 7.5L3.5 4M17 7.5C17 11.0147 17 16.5 17 16.5M17 7.5C17 7.5 19.3333 5.33333 20.5 4M17 16.5H7M17 16.5L20.5 20M7 16.5L3.5 20" stroke="#FD5631" stroke-width="1.2"/>
</svg>
